<svg width="23" height="23" viewBox="0 0 23 23" fill="none" xmlns="http://www.w3.org/2000/svg">
<path fill-rule="evenodd" clip-rule="evenodd" d="M6.03246 1.0625C3.28763 1.0625 1.0625 3.28763 1.0625 6.03246V16.9724C1.0625 19.7172 3.28763 21.9423 6.03246 21.9423H16.9724C19.7172 21.9423 21.9423 19.7172 21.9423 16.9724V6.03246C21.9423 3.28763 19.7172 1.0625 16.9724 1.0625H6.03246ZM0.0625 6.03246C0.0625 2.73534 2.73534 0.0625 6.03246 0.0625H16.9724C20.2695 0.0625 22.9423 2.73534 22.9423 6.03246V16.9724C22.9423 20.2695 20.2695 22.9423 16.9724 22.9423H6.03246C2.73534 22.9423 0.0625 20.2695 0.0625 16.9724V6.03246ZM12.1186 7.62083C11.3122 7.50124 10.4886 7.63899 9.76495 8.01447C9.04131 8.38996 8.45449 8.98406 8.08796 9.71227C7.72142 10.4405 7.59384 11.2657 7.72336 12.0706C7.85288 12.8755 8.23291 13.6191 8.80938 14.1956C9.38586 14.7721 10.1294 15.1521 10.9343 15.2816C11.7392 15.4111 12.5645 15.2835 13.2927 14.917C14.0209 14.5505 14.615 13.9637 14.9905 13.24C15.366 12.5164 15.5037 11.6928 15.3841 10.8863C15.2622 10.0637 14.8789 9.30217 14.2908 8.71415C13.7028 8.12612 12.9412 7.74281 12.1186 7.62083ZM9.30438 7.12685C10.2147 6.65449 11.2508 6.48121 12.2653 6.63164C13.3002 6.7851 14.2582 7.2673 14.9979 8.00704C15.7377 8.74678 16.2199 9.70482 16.3733 10.7396C16.5238 11.7541 16.3505 12.7903 15.8781 13.7006C15.4058 14.6109 14.6584 15.3492 13.7423 15.8103C12.8262 16.2713 11.788 16.4318 10.7755 16.2689C9.76289 16.106 8.82748 15.6279 8.10228 14.9027C7.37707 14.1775 6.899 13.2421 6.73606 12.2295C6.57313 11.2169 6.73362 10.1788 7.19472 9.26268C7.65582 8.34659 8.39404 7.59921 9.30438 7.12685ZM17.5192 4.98545C17.243 4.98545 17.0192 5.20931 17.0192 5.48545C17.0192 5.76159 17.243 5.98545 17.5192 5.98545H17.5302C17.8064 5.98545 18.0302 5.76159 18.0302 5.48545C18.0302 5.20931 17.8064 4.98545 17.5302 4.98545H17.5192Z" fill="black"/>
</svg>
