<svg width="23" height="22" viewBox="0 0 23 22" fill="none" xmlns="http://www.w3.org/2000/svg">
<path fill-rule="evenodd" clip-rule="evenodd" d="M1.0625 2.71208C1.0625 1.8093 1.8098 1.0625 2.75024 1.0625C3.69069 1.0625 4.43799 1.8093 4.43799 2.71208C4.43799 3.61487 3.69069 4.36167 2.75024 4.36167C1.8098 4.36167 1.0625 3.61487 1.0625 2.71208ZM2.75024 0.0625C1.27417 0.0625 0.0625 1.2405 0.0625 2.71208C0.0625 4.18367 1.27417 5.36167 2.75024 5.36167C4.22631 5.36167 5.43799 4.18367 5.43799 2.71208C5.43799 1.2405 4.22631 0.0625 2.75024 0.0625ZM15.875 7.51027C14.2641 7.51027 12.721 8.13911 11.5845 9.25572C10.4484 10.372 9.81179 11.8842 9.81179 13.459V20.4826H13.1873V13.459C13.1873 12.7534 13.4726 12.0786 13.9776 11.5824C14.4823 11.0865 15.165 10.8094 15.875 10.8094C16.585 10.8094 17.2677 11.0865 17.7724 11.5824C18.2774 12.0786 18.5628 12.7534 18.5628 13.459V20.4826H21.9382V13.459C21.9382 11.8842 21.3016 10.372 20.1655 9.25572C19.0291 8.13911 17.4859 7.51027 15.875 7.51027ZM15.875 6.51027C14.0045 6.51027 12.2089 7.24027 10.8837 8.54242C9.55812 9.84485 8.81179 11.6132 8.81179 13.459V20.9826C8.81179 21.2587 9.03565 21.4826 9.31179 21.4826H13.6873C13.9634 21.4826 14.1873 21.2587 14.1873 20.9826V13.459C14.1873 13.0244 14.3629 12.6058 14.6785 12.2957C14.9943 11.9853 15.4246 11.8094 15.875 11.8094C16.3254 11.8094 16.7557 11.9853 17.0716 12.2957C17.3871 12.6058 17.5628 13.0244 17.5628 13.459V20.9826C17.5628 21.2587 17.7866 21.4826 18.0628 21.4826H22.4382C22.7144 21.4826 22.9382 21.2587 22.9382 20.9826V13.459C22.9382 11.6132 22.1919 9.84486 20.8664 8.54242C19.5411 7.24027 17.7455 6.51027 15.875 6.51027ZM0.0625 8.08504C0.0625 7.8089 0.286358 7.58504 0.5625 7.58504H4.93799C5.21413 7.58504 5.43799 7.8089 5.43799 8.08504V20.9825C5.43799 21.2587 5.21413 21.4825 4.93799 21.4825H0.5625C0.286358 21.4825 0.0625 21.2587 0.0625 20.9825V8.08504ZM1.0625 8.58504V20.4825H4.43799V8.58504H1.0625Z" fill="black"/>
</svg>
