<svg width="17" height="18" viewBox="0 0 17 18" fill="none" xmlns="http://www.w3.org/2000/svg">
<path d="M11.3333 16.6146H5.66667C3.08125 16.6146 1.59375 15.1271 1.59375 12.5417V5.45832C1.59375 2.87291 3.08125 1.38541 5.66667 1.38541H11.3333C13.9187 1.38541 15.4062 2.87291 15.4062 5.45832V12.5417C15.4062 15.1271 13.9187 16.6146 11.3333 16.6146ZM5.66667 2.44791C3.64083 2.44791 2.65625 3.43249 2.65625 5.45832V12.5417C2.65625 14.5675 3.64083 15.5521 5.66667 15.5521H11.3333C13.3592 15.5521 14.3437 14.5675 14.3437 12.5417V5.45832C14.3437 3.43249 13.3592 2.44791 11.3333 2.44791H5.66667Z" fill="#667085"/>
<path d="M13.1068 7.05208H11.6901C10.6134 7.05208 9.74219 6.18083 9.74219 5.10417V3.6875C9.74219 3.39708 9.98302 3.15625 10.2734 3.15625C10.5639 3.15625 10.8047 3.39708 10.8047 3.6875V5.10417C10.8047 5.59292 11.2014 5.98958 11.6901 5.98958H13.1068C13.3972 5.98958 13.638 6.23042 13.638 6.52083C13.638 6.81125 13.3972 7.05208 13.1068 7.05208Z" fill="#667085"/>
<path d="M8.4974 10.2396H5.66406C5.37365 10.2396 5.13281 9.99876 5.13281 9.70834C5.13281 9.41793 5.37365 9.17709 5.66406 9.17709H8.4974C8.78781 9.17709 9.02865 9.41793 9.02865 9.70834C9.02865 9.99876 8.78781 10.2396 8.4974 10.2396Z" fill="#667085"/>
<path d="M11.3307 13.0729H5.66406C5.37365 13.0729 5.13281 12.8321 5.13281 12.5417C5.13281 12.2512 5.37365 12.0104 5.66406 12.0104H11.3307C11.6211 12.0104 11.862 12.2512 11.862 12.5417C11.862 12.8321 11.6211 13.0729 11.3307 13.0729Z" fill="#667085"/>
</svg>
