<svg width="18" height="18" viewBox="0 0 18 18" fill="none" xmlns="http://www.w3.org/2000/svg">
<path d="M4.0498 1.57422H13.9498C14.7748 1.57422 15.4498 2.24922 15.4498 3.07422V4.72422C15.4498 5.32422 15.0748 6.07422 14.6998 6.44922L11.4748 9.29922C11.0248 9.67422 10.7248 10.4242 10.7248 11.0242V14.2492C10.7248 14.6992 10.4248 15.2992 10.0498 15.5242L8.9998 16.1992C8.02481 16.7992 6.6748 16.1242 6.6748 14.9242V10.9492C6.6748 10.4242 6.3748 9.74922 6.0748 9.37422L3.2248 6.37422C2.8498 5.99922 2.5498 5.32422 2.5498 4.87422V3.14922C2.5498 2.24922 3.2248 1.57422 4.0498 1.57422Z" stroke="#828697" stroke-miterlimit="10" stroke-linecap="round" stroke-linejoin="round"/>
<path d="M8.1975 1.57422L4.5 7.49922" stroke="#828697" stroke-miterlimit="10" stroke-linecap="round" stroke-linejoin="round"/>
</svg>
