<svg width="35" height="35" viewBox="0 0 35 35" fill="none" xmlns="http://www.w3.org/2000/svg">
<path d="M27.7083 24.7916V16.0416C27.7083 11.9169 27.7083 9.85446 26.4268 8.57306C25.1454 7.29165 23.083 7.29165 18.9583 7.29165H14.5833M14.5833 7.29165C14.5833 6.27048 17.4916 4.36263 18.2291 3.64581M14.5833 7.29165C14.5833 8.31282 17.4916 10.2207 18.2291 10.9375" stroke="#141B34" stroke-width="1.5" stroke-linecap="round" stroke-linejoin="round"/>
<path d="M7.29175 10.9375V19.6875C7.29175 23.8123 7.29175 25.8746 8.57316 27.1561C9.85457 28.4375 11.917 28.4375 16.0417 28.4375H20.4167M20.4167 28.4375C20.4167 29.4586 17.5084 31.3666 16.7709 32.0833M20.4167 28.4375C20.4167 27.4164 17.5084 25.5084 16.7709 24.7917" stroke="#141B34" stroke-width="1.5" stroke-linecap="round" stroke-linejoin="round"/>
<path d="M27.7084 30.625C29.3192 30.625 30.6251 29.3192 30.6251 27.7084C30.6251 26.0975 29.3192 24.7917 27.7084 24.7917C26.0976 24.7917 24.7917 26.0975 24.7917 27.7084C24.7917 29.3192 26.0976 30.625 27.7084 30.625Z" stroke="#141B34" stroke-width="1.5"/>
<path d="M7.29167 10.2083C8.9025 10.2083 10.2083 8.9025 10.2083 7.29167C10.2083 5.68084 8.9025 4.375 7.29167 4.375C5.68084 4.375 4.375 5.68084 4.375 7.29167C4.375 8.9025 5.68084 10.2083 7.29167 10.2083Z" stroke="#141B34" stroke-width="1.5"/>
</svg>
