<svg width="22" height="22" viewBox="0 0 22 22" fill="none" xmlns="http://www.w3.org/2000/svg">
<path d="M15.3642 21.5004H6.63416C5.64691 21.5371 4.68506 21.1827 3.95762 20.5143C3.23017 19.8458 2.7959 18.9173 2.74916 17.9304V13.2504C2.74916 13.0515 2.82818 12.8608 2.96883 12.7201C3.10948 12.5795 3.30025 12.5004 3.49916 12.5004C3.69807 12.5004 3.88884 12.5795 4.02949 12.7201C4.17014 12.8608 4.24916 13.0515 4.24916 13.2504V17.9304C4.29526 18.5195 4.57124 19.0668 5.01749 19.4542C5.46374 19.8415 6.04445 20.0377 6.63416 20.0004H15.3642C15.9539 20.0377 16.5346 19.8415 16.9808 19.4542C17.4271 19.0668 17.7031 18.5195 17.7492 17.9304V13.2504C17.7492 13.0515 17.8282 12.8608 17.9688 12.7201C18.1095 12.5795 18.3002 12.5004 18.4992 12.5004C18.6981 12.5004 18.8888 12.5795 19.0295 12.7201C19.1701 12.8608 19.2492 13.0515 19.2492 13.2504V17.9304C19.2024 18.9173 18.7682 19.8458 18.0407 20.5143C17.3133 21.1827 16.3514 21.5371 15.3642 21.5004ZM21.2817 11.5329C21.352 11.4632 21.4078 11.3803 21.4458 11.2889C21.4839 11.1975 21.5035 11.0995 21.5035 11.0004C21.5035 10.9014 21.4839 10.8034 21.4458 10.712C21.4078 10.6206 21.352 10.5377 21.2817 10.4679L11.5317 0.717942C11.4619 0.647646 11.379 0.59185 11.2876 0.553774C11.1962 0.515697 11.0982 0.496094 10.9992 0.496094C10.9002 0.496094 10.8021 0.515697 10.7107 0.553774C10.6193 0.59185 10.5364 0.647646 10.4667 0.717942L0.716662 10.4679C0.575435 10.6092 0.496094 10.8007 0.496094 11.0004C0.496094 11.2002 0.575435 11.3917 0.716662 11.5329C0.85789 11.6742 1.04944 11.7535 1.24916 11.7535C1.44889 11.7535 1.64043 11.6742 1.78166 11.5329L10.9992 2.30794L20.2167 11.5329C20.2864 11.6032 20.3693 11.659 20.4607 11.6971C20.5521 11.7352 20.6502 11.7548 20.7492 11.7548C20.8482 11.7548 20.9462 11.7352 21.0376 11.6971C21.129 11.659 21.2119 11.6032 21.2817 11.5329Z" fill="#828697"/>
</svg>
