<svg width="24" height="24" viewBox="0 0 24 24" fill="none" xmlns="http://www.w3.org/2000/svg">
<path d="M15 22.25H9C6.3424 22.25 4.56492 21.6803 3.4423 20.5577C2.31968 19.4351 1.75 17.6576 1.75 15V9C1.75 6.3424 2.31968 4.56492 3.4423 3.4423C4.56492 2.31968 6.3424 1.75 9 1.75H11C11.1339 1.75 11.25 1.86614 11.25 2C11.25 2.13386 11.1339 2.25 11 2.25H9C6.65972 2.25 4.92432 2.66107 3.7927 3.7927C2.66107 4.92432 2.25 6.65972 2.25 9V15C2.25 17.3403 2.66107 19.0757 3.7927 20.2073C4.92432 21.3389 6.65972 21.75 9 21.75H15C17.3403 21.75 19.0757 21.3389 20.2073 20.2073C21.3389 19.0757 21.75 17.3403 21.75 15V13C21.75 12.8661 21.8661 12.75 22 12.75C22.1339 12.75 22.25 12.8661 22.25 13V15C22.25 17.6576 21.6803 19.4351 20.5577 20.5577C19.4351 21.6803 17.6576 22.25 15 22.25Z" fill="#14151E" stroke="#14151E"/>
<path d="M6.82406 15.1912L6.82432 15.1893L7.25433 12.1793L7.25466 12.1769C7.31938 11.7077 7.64797 11.0571 7.9829 10.7221L15.8629 2.84215C16.8021 1.90298 17.6849 1.49609 18.5093 1.49609C19.3338 1.49609 20.2166 1.90298 21.1558 2.84215C22.1801 3.86645 22.573 4.83806 22.4916 5.75136C22.4163 6.49723 22.0156 7.27468 21.1577 8.12309L21.1558 8.12504L13.2758 16.005C12.9409 16.34 12.2903 16.6686 11.821 16.7333L11.8186 16.7336L8.80864 17.1636L8.78761 17.1666L8.76692 17.1714C8.70093 17.1866 8.62695 17.1886 8.49935 17.1886C8.01186 17.1886 7.58085 17.0143 7.27074 16.7129C6.90818 16.3489 6.73408 15.8046 6.82406 15.1912ZM16.2173 3.19352L16.2158 3.19504L8.33579 11.075C8.18696 11.2239 8.05616 11.4346 7.96156 11.6224C7.86691 11.8103 7.77652 12.0387 7.74516 12.2426L7.74513 12.2426L7.74437 12.2479L7.31437 15.2579L7.31404 15.2603C7.26134 15.6423 7.32679 16.0631 7.62579 16.3621C7.9248 16.6612 8.34559 16.7266 8.72767 16.6739L8.73006 16.6736L11.7401 16.2436L11.7401 16.2436L11.7454 16.2428C11.9479 16.2116 12.1781 16.122 12.368 16.0271C12.5527 15.9347 12.7679 15.8032 12.9169 15.6481L20.7929 7.77215C21.4734 7.09163 21.9112 6.40751 21.9772 5.69469L21.9772 5.69455C22.0576 4.82434 21.5925 3.99517 20.7952 3.18736L20.7952 3.18735L20.7929 3.18504C19.9436 2.33571 19.1301 1.93361 18.297 2.01072C17.4921 2.08522 16.8174 2.59861 16.2173 3.19352Z" fill="#14151E" stroke="#14151E"/>
<path d="M19.8075 9.32588L19.7964 9.32218L19.785 9.31896C17.3233 8.6263 15.3646 6.66811 14.6714 4.20661C14.6357 4.07487 14.7076 3.93596 14.8477 3.89092C14.9827 3.85679 15.1121 3.9341 15.1475 4.06285L15.1475 4.06285L15.1483 4.06584C15.7955 6.3634 17.6164 8.18434 19.914 8.83154L19.914 8.83155L19.917 8.83237C20.0417 8.86668 20.1267 9.00488 20.0875 9.14769L20.0862 9.15232C20.0576 9.26041 19.966 9.33027 19.8496 9.33027C19.838 9.33027 19.8275 9.32942 19.8191 9.32817C19.8112 9.32699 19.8074 9.32582 19.8075 9.32588Z" fill="#14151E" stroke="#14151E"/>
</svg>
