<svg width="16" height="16" viewBox="0 0 16 16" fill="none" xmlns="http://www.w3.org/2000/svg">
<g clip-path="url(#clip0_5267_159)">
<path d="M4.66602 11.9987C3.93268 11.9987 3.33935 12.5987 3.33935 13.332C3.33935 14.0654 3.93268 14.6654 4.66602 14.6654C5.39935 14.6654 5.99935 14.0654 5.99935 13.332C5.99935 12.5987 5.39935 11.9987 4.66602 11.9987ZM0.666016 1.9987C0.666016 2.36536 0.966016 2.66536 1.33268 2.66536H1.99935L4.39935 7.72536L3.49935 9.35203C3.01268 10.2454 3.65268 11.332 4.66602 11.332H11.9993C12.366 11.332 12.666 11.032 12.666 10.6654C12.666 10.2987 12.366 9.9987 11.9993 9.9987H4.66602L5.39935 8.66536H10.366C10.866 8.66536 11.306 8.39203 11.5327 7.9787L13.9193 3.65203C14.166 3.21203 13.846 2.66536 13.3393 2.66536H3.47268L3.02602 1.71203C2.91935 1.4787 2.67935 1.33203 2.42602 1.33203H1.33268C0.966016 1.33203 0.666016 1.63203 0.666016 1.9987ZM11.3327 11.9987C10.5993 11.9987 10.006 12.5987 10.006 13.332C10.006 14.0654 10.5993 14.6654 11.3327 14.6654C12.066 14.6654 12.666 14.0654 12.666 13.332C12.666 12.5987 12.066 11.9987 11.3327 11.9987Z" fill="#323232"/>
</g>
<defs>
<clipPath id="clip0_5267_159">
<rect width="16" height="16" fill="white"/>
</clipPath>
</defs>
</svg>
