<svg width="18" height="18" viewBox="0 0 18 18" fill="none" xmlns="http://www.w3.org/2000/svg">
<path d="M2.25781 8.41406V11.7816C2.25781 15.1491 3.60781 16.4991 6.97531 16.4991H11.0178C14.3853 16.4991 15.7353 15.1491 15.7353 11.7816V8.41406" stroke="#454648" stroke-linecap="round" stroke-linejoin="round"/>
<path d="M9.00036 9C10.3729 9 11.3854 7.8825 11.2504 6.51L10.7554 1.5H7.25286L6.75036 6.51C6.61536 7.8825 7.62786 9 9.00036 9Z" stroke="#454648" stroke-linecap="round" stroke-linejoin="round"/>
<path d="M13.7321 9C15.2471 9 16.3571 7.77 16.2071 6.2625L15.9971 4.2C15.7271 2.25 14.9771 1.5 13.0121 1.5H10.7246L11.2496 6.7575C11.3771 7.995 12.4946 9 13.7321 9Z" stroke="#454648" stroke-width="1.5" stroke-linecap="round" stroke-linejoin="round"/>
<path d="M4.23077 9C5.46827 9 6.58577 7.995 6.70577 6.7575L6.87077 5.1L7.23077 1.5H4.94327C2.97827 1.5 2.22827 2.25 1.95827 4.2L1.75577 6.2625C1.60577 7.77 2.71577 9 4.23077 9Z" stroke="#454648" stroke-width="1.5" stroke-linecap="round" stroke-linejoin="round"/>
<path d="M9 12.75C7.7475 12.75 7.125 13.3725 7.125 14.625V16.5H10.875V14.625C10.875 13.3725 10.2525 12.75 9 12.75Z" stroke="#292D32" stroke-width="1.5" stroke-linecap="round" stroke-linejoin="round"/>
</svg>
