<svg width="17" height="17" viewBox="0 0 17 17" fill="none" xmlns="http://www.w3.org/2000/svg">
<path d="M7.78906 15.5833C7.2095 15.5833 6.65586 15.3494 5.54855 14.8817C2.79222 13.7174 1.41406 13.1352 1.41406 12.1559C1.41406 11.8817 1.41406 7.129 1.41406 4.95831M7.78906 15.5833V8.04296M7.78906 15.5833C8.03018 15.5833 8.24686 15.5428 8.4974 15.4618M14.1641 4.95831V8.14581" stroke="#667085" stroke-width="1.5" stroke-linecap="round" stroke-linejoin="round"/>
<path d="M5.18659 6.86475L3.11741 5.8635C1.98184 5.31401 1.41406 5.03927 1.41406 4.60419C1.41406 4.16911 1.98184 3.89437 3.11741 3.34488L5.18659 2.34363C6.46365 1.72567 7.10219 1.41669 7.78906 1.41669C8.47593 1.41669 9.1145 1.72566 10.3915 2.34363L12.4607 3.34488C13.5963 3.89437 14.1641 4.16911 14.1641 4.60419C14.1641 5.03927 13.5963 5.31401 12.4607 5.8635L10.3915 6.86475C9.1145 7.48271 8.47593 7.79169 7.78906 7.79169C7.10219 7.79169 6.46365 7.48271 5.18659 6.86475Z" stroke="#667085" stroke-width="1.5" stroke-linecap="round" stroke-linejoin="round"/>
<path d="M3.53906 8.5L4.95573 9.20833" stroke="#667085" stroke-width="1.5" stroke-linecap="round" stroke-linejoin="round"/>
<path d="M11.3333 2.83331L4.25 6.37498" stroke="#667085" stroke-width="1.5" stroke-linecap="round" stroke-linejoin="round"/>
<path d="M14.2577 14.2792L15.5807 15.5834M15.0193 12.4641C15.0193 13.871 13.8765 15.0116 12.4667 15.0116C11.0569 15.0116 9.91406 13.871 9.91406 12.4641C9.91406 11.0572 11.0569 9.91669 12.4667 9.91669C13.8765 9.91669 15.0193 11.0572 15.0193 12.4641Z" stroke="#667085" stroke-width="1.5" stroke-linecap="round"/>
</svg>
