<svg width="38" height="38" viewBox="0 0 38 38" fill="none" xmlns="http://www.w3.org/2000/svg">
<path d="M32.2884 12.7168L29.5224 10.3148C27.5296 8.58408 26.7484 7.65306 25.6692 7.98219C24.3235 8.39259 24.7665 10.9821 24.7665 11.8564C22.6743 11.8564 20.4991 11.6955 18.4368 12.0307C11.6288 13.1376 9.5 17.9813 9.5 23.1998C11.4269 22.0186 13.3518 20.7014 15.6677 20.1541C18.5586 19.4707 21.7871 19.7967 24.7665 19.7967C24.7665 20.671 24.3235 23.2606 25.6692 23.671C26.892 24.0439 27.5296 23.069 29.5224 21.3384L32.2884 18.9363C33.985 17.4631 34.8333 16.7263 34.8333 15.8266C34.8333 14.9269 33.985 14.1902 32.2884 12.7168Z" stroke="#141B34" stroke-width="1.5" stroke-linecap="round" stroke-linejoin="round"/>
<path d="M16.7321 4.75C10.6201 4.76099 7.41949 4.91074 5.37409 6.95199C3.16675 9.15486 3.16675 12.7003 3.16675 19.7912C3.16675 26.8821 3.16675 30.4275 5.37407 32.6304C7.58141 34.8333 11.134 34.8333 18.2393 34.8333C25.3447 34.8333 28.8973 34.8333 31.1047 32.6304C32.6414 31.0967 33.1082 28.9121 33.2501 25.3333" stroke="#141B34" stroke-width="1.5" stroke-linecap="round" stroke-linejoin="round"/>
</svg>
