<svg width="36" height="36" viewBox="0 0 36 36" fill="none" xmlns="http://www.w3.org/2000/svg">
<path d="M26.75 11.0962C27.8795 11.3304 28.7316 11.7212 29.4164 12.3735C31.125 14.0009 31.125 16.6202 31.125 21.8587C31.125 27.0972 31.125 29.7163 29.4164 31.3438C27.708 32.9712 24.958 32.9712 19.4583 32.9712H16.5417C11.0419 32.9712 8.29209 32.9712 6.58354 31.3438C4.875 29.7163 4.875 27.0972 4.875 21.8587C4.875 16.6202 4.875 14.0009 6.58354 12.3735C7.26839 11.7212 8.12052 11.3304 9.25 11.0962" stroke="black" stroke-width="2.1875" stroke-linecap="round"/>
<path d="M18.0369 3.80496L18 21.3042M18.0369 3.80496C17.7998 3.79515 17.5612 3.87991 17.3486 4.0593C16.0267 5.17513 13.625 8.07546 13.625 8.07546M18.0369 3.80496C18.2495 3.81379 18.4611 3.89865 18.6516 4.05953C19.9733 5.17558 22.375 8.07546 22.375 8.07546" stroke="black" stroke-width="2.1875" stroke-linecap="round" stroke-linejoin="round"/>
</svg>
