<svg width="31" height="30" viewBox="0 0 31 30" fill="none" xmlns="http://www.w3.org/2000/svg">
<path d="M10.2998 20H19.3788C24.9883 20 25.8414 16.476 26.8761 11.3364C27.1746 9.85389 27.3238 9.11266 26.9649 8.61884C26.6061 8.125 25.9182 8.125 24.5424 8.125H7.7998" stroke="#E3BE5D" stroke-width="1.875" stroke-linecap="round"/>
<path d="M10.2998 20L7.02322 4.39366C6.74499 3.28074 5.74503 2.5 4.59787 2.5H3.4248" stroke="#E3BE5D" stroke-width="1.875" stroke-linecap="round"/>
<path d="M11.3998 20H10.8855C9.18133 20 7.7998 21.4391 7.7998 23.2142C7.7998 23.5101 8.03005 23.75 8.31409 23.75H22.1748" stroke="#E3BE5D" stroke-width="1.875" stroke-linecap="round" stroke-linejoin="round"/>
<path d="M13.4248 27.5C14.4603 27.5 15.2998 26.6605 15.2998 25.625C15.2998 24.5895 14.4603 23.75 13.4248 23.75C12.3893 23.75 11.5498 24.5895 11.5498 25.625C11.5498 26.6605 12.3893 27.5 13.4248 27.5Z" stroke="#E3BE5D" stroke-width="1.875"/>
<path d="M22.1748 27.5C23.2103 27.5 24.0498 26.6605 24.0498 25.625C24.0498 24.5895 23.2103 23.75 22.1748 23.75C21.1393 23.75 20.2998 24.5895 20.2998 25.625C20.2998 26.6605 21.1393 27.5 22.1748 27.5Z" stroke="#E3BE5D" stroke-width="1.875"/>
</svg>
