<svg width="36" height="36" viewBox="0 0 36 36" fill="none" xmlns="http://www.w3.org/2000/svg">
<path d="M19.458 27.1375H31.1247M25.2913 32.9709V21.3042" stroke="black" stroke-width="2.1875" stroke-linecap="round"/>
<path d="M10.708 11.825V11.0959C10.708 7.06879 13.9726 3.8042 17.9997 3.8042C22.0267 3.8042 25.2913 7.06879 25.2913 11.0959V11.825" stroke="black" stroke-width="2.1875"/>
<path d="M15.0833 32.971C11.7583 32.9709 10.0825 32.9589 8.9118 31.914C7.72754 30.8572 7.4285 29.072 6.83041 25.5016L5.13438 15.3771C4.85851 13.7302 4.72058 12.9068 5.14533 12.366C5.57007 11.8252 6.35474 11.8252 7.92407 11.8252H28.0759C29.6452 11.8252 30.43 11.8252 30.8546 12.366C31.2794 12.9068 31.1415 13.7302 30.8656 15.3771L30.3613 18.3877" stroke="black" stroke-width="2.1875" stroke-linecap="round"/>
<path d="M7.0625 26.4087H15.0833" stroke="black" stroke-width="2.1875" stroke-linecap="round"/>
</svg>
