<svg width="17" height="17" viewBox="0 0 17 17" fill="none" xmlns="http://www.w3.org/2000/svg">
<path d="M12.0417 14.1667C12.8241 14.1667 13.4583 13.5324 13.4583 12.75C13.4583 11.9676 12.8241 11.3333 12.0417 11.3333C11.2592 11.3333 10.625 11.9676 10.625 12.75C10.625 13.5324 11.2592 14.1667 12.0417 14.1667Z" stroke="#667085" stroke-width="1.0625"/>
<path d="M4.95573 14.1667C5.73813 14.1667 6.3724 13.5324 6.3724 12.75C6.3724 11.9676 5.73813 11.3333 4.95573 11.3333C4.17333 11.3333 3.53906 11.9676 3.53906 12.75C3.53906 13.5324 4.17333 14.1667 4.95573 14.1667Z" stroke="#667085" stroke-width="1.0625"/>
<path d="M13.4557 7.79168H15.5807V9.20834C15.5807 10.8779 15.5807 11.7127 15.0621 12.2314C14.7172 12.5762 14.2326 12.6918 13.4557 12.7305M3.53906 12.7305C2.76222 12.6918 2.27759 12.5762 1.93273 12.2314C1.41406 11.7127 1.41406 10.8779 1.41406 9.20834V6.37501C1.41406 4.70545 1.41406 3.87068 1.93273 3.35201C2.4514 2.83334 3.28617 2.83334 4.95573 2.83334H7.29323C8.0843 2.83334 8.47983 2.83334 8.79993 2.93735C9.44685 3.14755 9.95401 3.65476 10.1642 4.30168C10.2682 4.62178 10.2682 5.0173 10.2682 5.80834C10.2682 6.67307 10.2682 7.10544 10.0314 7.39784C9.98475 7.4555 9.93205 7.5082 9.8744 7.55488C9.582 7.79168 9.14963 7.79168 8.2849 7.79168H5.66406M10.6224 12.75H6.3724" stroke="#667085" stroke-width="1.0625" stroke-linecap="round" stroke-linejoin="round"/>
<path d="M10.2734 4.25H11.5635C12.5944 4.25 13.1097 4.25 13.5292 4.50054C13.9487 4.75109 14.1931 5.20491 14.6818 6.11256L15.5859 7.79167" stroke="#667085" stroke-width="1.0625" stroke-linecap="round" stroke-linejoin="round"/>
<path d="M7.08073 9.20833C7.08073 9.20833 6.60466 8.81422 6.18631 8.44057C5.89055 8.20271 5.66406 7.99892 5.66406 7.79507C5.66406 7.61444 5.84078 7.44657 6.12859 7.18356C6.53664 6.84382 7.08073 6.375 7.08073 6.375" stroke="#667085" stroke-width="1.0625" stroke-linecap="round" stroke-linejoin="round"/>
</svg>
