<svg width="20" height="20" viewBox="0 0 20 20" fill="none" xmlns="http://www.w3.org/2000/svg">
<path d="M10.8307 12.2917H1.66406C1.3224 12.2917 1.03906 12.0083 1.03906 11.6667V6.35001C1.03906 6.08334 1.20572 5.84999 1.44739 5.75832C1.69739 5.66665 1.9724 5.74168 2.13907 5.94168C2.6474 6.55001 3.43907 6.89167 4.2224 6.86667C4.88907 6.85 5.50571 6.60002 5.97238 6.15836C6.18905 5.97502 6.36405 5.75834 6.49739 5.51667C6.75572 5.07501 6.88073 4.59166 6.8724 4.1C6.85573 3.33333 6.52242 2.63333 5.95575 2.125C5.75575 1.95 5.68906 1.67499 5.78073 1.43332C5.8724 1.19165 6.10574 1.02499 6.36407 1.02499H12.4974C12.8391 1.02499 13.1224 1.30833 13.1224 1.64999V9.98333C13.1224 11.2667 12.0974 12.2917 10.8307 12.2917ZM2.28906 11.0417H10.8307C11.4057 11.0417 11.8724 10.575 11.8724 10V2.29168H7.65573C7.9474 2.83334 8.10573 3.44169 8.1224 4.07502C8.13906 4.80002 7.95572 5.51667 7.58905 6.14167C7.38905 6.50001 7.11406 6.84169 6.81406 7.09169C6.14739 7.72502 5.23072 8.10001 4.25572 8.12501C3.55572 8.15001 2.88074 7.97501 2.2974 7.65835V11.0417H2.28906Z" fill="#12B76A"/>
<path d="M15.8307 17.2917H14.9974C14.6557 17.2917 14.3724 17.0083 14.3724 16.6667C14.3724 16.0917 13.9057 15.625 13.3307 15.625C12.7557 15.625 12.2891 16.0917 12.2891 16.6667C12.2891 17.0083 12.0057 17.2917 11.6641 17.2917H8.33073C7.98906 17.2917 7.70573 17.0083 7.70573 16.6667C7.70573 16.0917 7.23906 15.625 6.66406 15.625C6.08906 15.625 5.6224 16.0917 5.6224 16.6667C5.6224 17.0083 5.33906 17.2917 4.9974 17.2917H4.16406C2.43906 17.2917 1.03906 15.8917 1.03906 14.1667V11.6667C1.03906 11.325 1.3224 11.0417 1.66406 11.0417H10.8307C11.4057 11.0417 11.8724 10.575 11.8724 9.99999V4.16666C11.8724 3.82499 12.1557 3.54166 12.4974 3.54166H14.0308C14.8558 3.54166 15.614 3.98334 16.0224 4.7L17.4474 7.19166C17.5557 7.38333 17.5557 7.62499 17.4474 7.81666C17.3391 8.00833 17.1307 8.12499 16.9057 8.12499H15.8307C15.7141 8.12499 15.6224 8.21666 15.6224 8.33332V10.8333C15.6224 10.95 15.7141 11.0417 15.8307 11.0417H18.3307C18.6724 11.0417 18.9557 11.325 18.9557 11.6667V14.1667C18.9557 15.8917 17.5557 17.2917 15.8307 17.2917ZM15.5391 16.0417H15.8307C16.8641 16.0417 17.7057 15.2 17.7057 14.1667V12.2917H15.8307C15.0307 12.2917 14.3724 11.6333 14.3724 10.8333V8.33332C14.3724 7.53332 15.0224 6.87499 15.8307 6.87499L14.9391 5.31666C14.7557 4.99166 14.4058 4.79166 14.0308 4.79166H13.1224V9.99999C13.1224 11.2667 12.0974 12.2917 10.8307 12.2917H2.28906V14.1667C2.28906 15.2 3.13073 16.0417 4.16406 16.0417H4.45571C4.73071 15.0833 5.61406 14.375 6.66406 14.375C7.71406 14.375 8.59742 15.0833 8.87242 16.0417H11.1307C11.4057 15.0833 12.2891 14.375 13.3391 14.375C14.3891 14.375 15.2641 15.0833 15.5391 16.0417Z" fill="#12B76A"/>
<path d="M6.66667 18.9583C5.4 18.9583 4.375 17.9333 4.375 16.6667C4.375 15.4 5.4 14.375 6.66667 14.375C7.93333 14.375 8.95833 15.4 8.95833 16.6667C8.95833 17.9333 7.93333 18.9583 6.66667 18.9583ZM6.66667 15.625C6.09167 15.625 5.625 16.0917 5.625 16.6667C5.625 17.2417 6.09167 17.7083 6.66667 17.7083C7.24167 17.7083 7.70833 17.2417 7.70833 16.6667C7.70833 16.0917 7.24167 15.625 6.66667 15.625Z" fill="#12B76A"/>
<path d="M13.3307 18.9583C12.0641 18.9583 11.0391 17.9333 11.0391 16.6667C11.0391 15.4 12.0641 14.375 13.3307 14.375C14.5974 14.375 15.6224 15.4 15.6224 16.6667C15.6224 17.9333 14.5974 18.9583 13.3307 18.9583ZM13.3307 15.625C12.7557 15.625 12.2891 16.0917 12.2891 16.6667C12.2891 17.2417 12.7557 17.7083 13.3307 17.7083C13.9057 17.7083 14.3724 17.2417 14.3724 16.6667C14.3724 16.0917 13.9057 15.625 13.3307 15.625Z" fill="#12B76A"/>
<path d="M18.3333 12.2917H15.8333C15.0333 12.2917 14.375 11.6333 14.375 10.8333V8.33333C14.375 7.53333 15.0333 6.875 15.8333 6.875H16.9083C17.1333 6.875 17.3417 6.99167 17.45 7.19167L18.875 9.69167C18.925 9.78334 18.9583 9.89167 18.9583 10V11.6667C18.9583 12.0083 18.675 12.2917 18.3333 12.2917ZM15.8333 8.125C15.7167 8.125 15.625 8.21667 15.625 8.33333V10.8333C15.625 10.95 15.7167 11.0417 15.8333 11.0417H17.7083V10.1667L16.5416 8.125H15.8333Z" fill="#12B76A"/>
<path d="M4.16192 8.12501C3.01192 8.12501 1.92859 7.62499 1.19525 6.74999C1.07859 6.62499 0.953602 6.44999 0.845269 6.28333C0.453602 5.69166 0.236936 4.99166 0.220269 4.25833C0.186936 3.04166 0.703612 1.89999 1.63695 1.12499C2.34528 0.541656 3.19524 0.22501 4.09524 0.208344C5.07857 0.216677 6.06195 0.541679 6.79528 1.20001C7.62861 1.93335 8.11194 2.95836 8.13694 4.07502C8.1536 4.80002 7.97026 5.51667 7.60359 6.14167C7.40359 6.50001 7.1286 6.84168 6.8286 7.09168C6.16193 7.72502 5.24526 8.10001 4.27026 8.12501C4.22859 8.12501 4.19525 8.12501 4.16192 8.12501ZM4.16192 1.45834C4.14525 1.45834 4.12859 1.45834 4.11192 1.45834C3.50359 1.46668 2.92024 1.69168 2.42857 2.09168C1.79524 2.61668 1.44526 3.40002 1.46193 4.22502C1.47859 4.72502 1.62027 5.20003 1.88694 5.59169C1.96194 5.70836 2.03692 5.81666 2.12858 5.91666C2.66192 6.54999 3.4536 6.88334 4.2286 6.86667C4.89527 6.85 5.51191 6.60002 5.97858 6.15836C6.19525 5.97502 6.37025 5.75834 6.50358 5.51667C6.76192 5.07501 6.88693 4.59166 6.87859 4.1C6.86193 3.33333 6.52861 2.63333 5.96195 2.125C5.46195 1.7 4.82859 1.45834 4.16192 1.45834Z" fill="#12B76A"/>
<path d="M3.71002 5.62493C3.55169 5.62493 3.40167 5.56658 3.27667 5.44991L2.435 4.64994C2.185 4.40828 2.1767 4.01661 2.41836 3.76661C2.66003 3.51661 3.0517 3.50826 3.3017 3.74993L3.71002 4.14157L5.01836 2.87494C5.26836 2.63327 5.66003 2.64157 5.90169 2.89157C6.14336 3.14157 6.13501 3.53329 5.88501 3.77495L4.14332 5.45825C4.01832 5.56658 3.86002 5.62493 3.71002 5.62493Z" fill="#12B76A"/>
</svg>
