<svg width="31" height="30" viewBox="0 0 31 30" fill="none" xmlns="http://www.w3.org/2000/svg">
<path d="M8.52177 19.352C6.75331 20.405 2.11651 22.5551 4.94063 25.2458C6.3202 26.56 7.85667 27.5 9.7884 27.5H20.8112C22.7429 27.5 24.2794 26.56 25.6589 25.2458C28.4831 22.5551 23.8463 20.405 22.0778 19.352C17.9308 16.8826 12.6688 16.8826 8.52177 19.352Z" stroke="#E3BE5D" stroke-width="1.875" stroke-linecap="round" stroke-linejoin="round"/>
<path d="M20.9248 8.125C20.9248 11.2316 18.4064 13.75 15.2998 13.75C12.1932 13.75 9.6748 11.2316 9.6748 8.125C9.6748 5.0184 12.1932 2.5 15.2998 2.5C18.4064 2.5 20.9248 5.0184 20.9248 8.125Z" stroke="#E3BE5D" stroke-width="1.875"/>
</svg>
